<svg width="13" height="12" viewBox="0 0 13 12" fill="none" xmlns="http://www.w3.org/2000/svg">
<g id="ph:brackets-curly" clip-path="url(#clip0_546_2886)">
<path id="Vector" d="M2.21654 6C2.38556 6.14657 2.52204 6.3296 2.61654 6.53646C2.85654 7.05208 2.85654 7.68229 2.85654 8.29167C2.85654 9.55729 2.90654 10.1667 4.05654 10.1667C4.16263 10.1667 4.26437 10.2106 4.33939 10.2887C4.4144 10.3668 4.45654 10.4728 4.45654 10.5833C4.45654 10.6938 4.4144 10.7998 4.33939 10.878C4.26437 10.9561 4.16263 11 4.05654 11C3.18154 11 2.59154 10.6823 2.29654 10.0469C2.05654 9.53125 2.05654 8.90104 2.05654 8.29167C2.05654 7.02604 2.00654 6.41667 0.856543 6.41667C0.750456 6.41667 0.648715 6.37277 0.5737 6.29463C0.498686 6.21649 0.456543 6.11051 0.456543 6C0.456543 5.88949 0.498686 5.78351 0.5737 5.70537C0.648715 5.62723 0.750456 5.58333 0.856543 5.58333C2.00654 5.58333 2.05654 4.97396 2.05654 3.70833C2.05654 3.09896 2.05654 2.46875 2.29654 1.95312C2.59154 1.31771 3.18154 1 4.05654 1C4.16263 1 4.26437 1.0439 4.33939 1.12204C4.4144 1.20018 4.45654 1.30616 4.45654 1.41667C4.45654 1.52717 4.4144 1.63315 4.33939 1.71129C4.26437 1.78943 4.16263 1.83333 4.05654 1.83333C2.90654 1.83333 2.85654 2.44271 2.85654 3.70833C2.85654 4.31771 2.85654 4.94792 2.61654 5.46354C2.52204 5.6704 2.38556 5.85343 2.21654 6ZM12.0565 5.58333C10.9065 5.58333 10.8565 4.97396 10.8565 3.70833C10.8565 3.09896 10.8565 2.46875 10.6165 1.95312C10.3215 1.31771 9.73154 1 8.85654 1C8.75046 1 8.64872 1.0439 8.5737 1.12204C8.49869 1.20018 8.45654 1.30616 8.45654 1.41667C8.45654 1.52717 8.49869 1.63315 8.5737 1.71129C8.64872 1.78943 8.75046 1.83333 8.85654 1.83333C10.0065 1.83333 10.0565 2.44271 10.0565 3.70833C10.0565 4.31771 10.0565 4.94792 10.2965 5.46354C10.391 5.6704 10.5275 5.85343 10.6965 6C10.5275 6.14657 10.391 6.3296 10.2965 6.53646C10.0565 7.05208 10.0565 7.68229 10.0565 8.29167C10.0565 9.55729 10.0065 10.1667 8.85654 10.1667C8.75046 10.1667 8.64872 10.2106 8.5737 10.2887C8.49869 10.3668 8.45654 10.4728 8.45654 10.5833C8.45654 10.6938 8.49869 10.7998 8.5737 10.878C8.64872 10.9561 8.75046 11 8.85654 11C9.73154 11 10.3215 10.6823 10.6165 10.0469C10.8565 9.53125 10.8565 8.90104 10.8565 8.29167C10.8565 7.02604 10.9065 6.41667 12.0565 6.41667C12.1626 6.41667 12.2644 6.37277 12.3394 6.29463C12.4144 6.21649 12.4565 6.11051 12.4565 6C12.4565 5.88949 12.4144 5.78351 12.3394 5.70537C12.2644 5.62723 12.1626 5.58333 12.0565 5.58333Z" fill="white"/>
</g>
<defs>
<clipPath id="clip0_546_2886">
<rect width="12" height="12" fill="white" transform="translate(0.456543)"/>
</clipPath>
</defs>
</svg>
