<svg width="16" height="17" viewBox="0 0 16 17" fill="none" xmlns="http://www.w3.org/2000/svg">
<g id="tabler:decimal">
<path id="Vector" d="M3.3335 11.1668H3.34016M11.3335 5.8335C11.6871 5.8335 12.0263 5.97397 12.2763 6.22402C12.5264 6.47407 12.6668 6.81321 12.6668 7.16683V9.8335C12.6668 10.1871 12.5264 10.5263 12.2763 10.7763C12.0263 11.0264 11.6871 11.1668 11.3335 11.1668C10.9799 11.1668 10.6407 11.0264 10.3907 10.7763C10.1406 10.5263 10.0002 10.1871 10.0002 9.8335V7.16683C10.0002 6.81321 10.1406 6.47407 10.3907 6.22402C10.6407 5.97397 10.9799 5.8335 11.3335 5.8335ZM6.66683 5.8335C7.02045 5.8335 7.35959 5.97397 7.60964 6.22402C7.85969 6.47407 8.00016 6.81321 8.00016 7.16683V9.8335C8.00016 10.1871 7.85969 10.5263 7.60964 10.7763C7.35959 11.0264 7.02045 11.1668 6.66683 11.1668C6.31321 11.1668 5.97407 11.0264 5.72402 10.7763C5.47397 10.5263 5.3335 10.1871 5.3335 9.8335V7.16683C5.3335 6.81321 5.47397 6.47407 5.72402 6.22402C5.97407 5.97397 6.31321 5.8335 6.66683 5.8335Z" stroke="white" strokeWidth="1.33333" strokeLinecap="round" strokeLinejoin="round"/>
</g>
</svg>
