<svg width="16" height="16" viewBox="0 0 16 16" fill="none" xmlns="http://www.w3.org/2000/svg">
<g id="tabler:copy">
<g id="Group">
<path id="Vector" d="M5.33301 6.66634C5.33301 6.31272 5.47348 5.97358 5.72353 5.72353C5.97358 5.47348 6.31272 5.33301 6.66634 5.33301H11.9997C12.3533 5.33301 12.6924 5.47348 12.9425 5.72353C13.1925 5.97358 13.333 6.31272 13.333 6.66634V11.9997C13.333 12.3533 13.1925 12.6924 12.9425 12.9425C12.6924 13.1925 12.3533 13.333 11.9997 13.333H6.66634C6.31272 13.333 5.97358 13.1925 5.72353 12.9425C5.47348 12.6924 5.33301 12.3533 5.33301 11.9997V6.66634Z" stroke="white" stroke-opacity="0.5" strokeWidth="1.16667" strokeLinecap="round" strokeLinejoin="round"/>
<path id="Vector_2" d="M10.6665 5.33317V3.99984C10.6665 3.64622 10.526 3.30708 10.276 3.05703C10.0259 2.80698 9.68679 2.6665 9.33317 2.6665H3.99984C3.64622 2.6665 3.30708 2.80698 3.05703 3.05703C2.80698 3.30708 2.6665 3.64622 2.6665 3.99984V9.33317C2.6665 9.68679 2.80698 10.0259 3.05703 10.276C3.30708 10.526 3.64622 10.6665 3.99984 10.6665H5.33317" stroke="white" stroke-opacity="0.5" strokeWidth="1.16667" strokeLinecap="round" strokeLinejoin="round"/>
</g>
</g>
</svg>
