<svg width="34" height="34" viewBox="0 0 34 34" fill="none" xmlns="http://www.w3.org/2000/svg">
<path d="M5.6665 18.4168H12.7498M16.9998 22.6668V11.3335H21.2498C22.0013 11.3335 22.722 11.632 23.2533 12.1634C23.7847 12.6947 24.0832 13.4154 24.0832 14.1668V15.5835C24.0832 16.3349 23.7847 17.0556 23.2533 17.587C22.722 18.1183 22.0013 18.4168 21.2498 18.4168H16.9998M28.3332 11.3335V22.6668M12.7498 22.6668V14.8752C12.7498 13.9359 12.3767 13.035 11.7125 12.3708C11.0483 11.7066 10.1475 11.3335 9.20817 11.3335C8.26886 11.3335 7.36803 11.7066 6.70383 12.3708C6.03964 13.035 5.6665 13.9359 5.6665 14.8752V22.6668" stroke="#FF7A00" stroke-width="1.33333" stroke-linecap="round" stroke-linejoin="round"/>
</svg>
