<svg width="16" height="17" viewBox="0 0 16 17" fill="none" xmlns="http://www.w3.org/2000/svg">
<g id="tabler:text-recognition">
<path id="Vector" d="M2.6665 5.83317V4.49984C2.6665 4.14622 2.80698 3.80708 3.05703 3.55703C3.30708 3.30698 3.64622 3.1665 3.99984 3.1665H5.33317M2.6665 11.1665V12.4998C2.6665 12.8535 2.80698 13.1926 3.05703 13.4426C3.30708 13.6927 3.64622 13.8332 3.99984 13.8332H5.33317M10.6665 3.1665H11.9998C12.3535 3.1665 12.6926 3.30698 12.9426 3.55703C13.1927 3.80708 13.3332 4.14622 13.3332 4.49984V5.83317M10.6665 13.8332H11.9998C12.3535 13.8332 12.6926 13.6927 12.9426 13.4426C13.1927 13.1926 13.3332 12.8535 13.3332 12.4998V11.1665M7.99984 11.1665V6.49984M5.99984 6.49984H9.99984" stroke="white" strokeWidth="1.16667" strokeLinecap="round" strokeLinejoin="round"/>
</g>
</svg>
